<?xml version="1.0" encoding="UTF-8"?>
<svg version="1.1" xmlns="http://www.w3.org/2000/svg" width="460" height="460">
<path d="M0 0 C151.8 0 303.6 0 460 0 C460 151.8 460 303.6 460 460 C308.2 460 156.4 460 0 460 C0 308.2 0 156.4 0 0 Z " fill="#F7485E" transform="translate(0,0)"/>
<path d="M0 0 C4.10802427 1.2482432 5.36120564 3.90496951 7.29785156 7.45874023 C7.67393555 8.17360596 8.05001953 8.88847168 8.4375 9.625 C9.23169758 11.08798703 10.02725509 12.5502367 10.82421875 14.01171875 C11.38955322 15.05658447 11.38955322 15.05658447 11.96630859 16.12255859 C13.15316398 18.27818399 14.42134924 20.366492 15.75 22.4375 C18.80795368 27.21293452 21.48540624 32.19649699 24.1796875 37.18359375 C26.49054304 41.42016224 28.94070842 45.50962389 31.5625 49.5625 C34.36903186 53.95693804 37.04548449 58.15620069 39 63 C36.04280867 70.60012459 29.14501108 75.55838474 23.06640625 80.60546875 C19.59156205 83.51238143 16.81809597 86.43041177 14 90 C12.34106818 91.34294481 10.67523395 92.67744688 9 94 C8.34 94.99 7.68 95.98 7 97 C93.13 97.495 93.13 97.495 181 98 C183.44021327 105.93069312 185.74362945 113.63425161 187.5625 121.6875 C188.94735116 127.77993103 190.46675611 133.76801792 192.34399414 139.72949219 C192.99915129 141.99706251 193.46525233 144.23918574 193.875 146.5625 C194.91925172 152.20686059 196.61416643 157.63941429 198.32373047 163.11157227 C199.39213502 166.59847072 200 169.31785596 200 173 C106.28 173 12.56 173 -84 173 C-86.92551542 164.22345375 -89.36499244 156.81222539 -91.125 147.9921875 C-92.77672894 140.10559064 -95.12409949 132.36473667 -97.27880859 124.60449219 C-97.92762886 122.26135928 -98.57046668 119.91680071 -99.20703125 117.5703125 C-99.47495483 116.58272949 -99.47495483 116.58272949 -99.74829102 115.57519531 C-100.23057377 113.76059179 -100.68617809 111.93896152 -101.140625 110.1171875 C-101.90167674 107.05403093 -101.90167674 107.05403093 -103.109375 104.5078125 C-104.10070858 102.06426219 -104.24843583 100.6143271 -104 98 C-101.05877 93.2810275 -96.30378986 89.43721595 -92 86 C-91.34 86 -90.68 86 -90 86 C-89.73960938 85.401875 -89.47921875 84.80375 -89.2109375 84.1875 C-87.91891371 81.85352153 -86.69131187 80.66026805 -84.625 79 C-81.93321915 76.78094926 -79.42886778 74.50983004 -77 72 C-73.22908554 68.12716894 -69.37099004 64.20392469 -65 61 C-64.34 61 -63.68 61 -63 61 C-62.73832031 60.40058594 -62.47664063 59.80117188 -62.20703125 59.18359375 C-60.92779812 56.86938236 -59.73749558 55.70340555 -57.6875 54.0625 C-54.60958164 51.52624429 -51.78621341 48.85953481 -49 46 C-45.15606632 42.10202156 -41.20244453 38.34453601 -37.1875 34.625 C-36.56584961 34.0477417 -35.94419922 33.4704834 -35.30371094 32.87573242 C-32.16244732 29.96780809 -29.00098071 27.09810515 -25.75 24.3125 C-21.77712455 20.8914128 -18.14361972 17.15769504 -14.4609375 13.4296875 C-11.64164529 10.64619583 -8.70336732 8.04837931 -5.6953125 5.47265625 C-3.69997138 3.73937606 -1.83007366 1.90632672 0 0 Z " fill="#01CFC8" transform="translate(182,224)"/>
<path d="M0 0 C91.41 0 182.82 0 277 0 C282.93158856 21.35371883 282.93158856 21.35371883 284.5625 27.5625 C284.76810547 28.34222168 284.97371094 29.12194336 285.18554688 29.92529297 C286.72725009 35.82600689 288.11976687 41.75388677 289.47192383 47.70043945 C290.85889788 53.67547581 292.57210963 59.53504952 294.42578125 65.38134766 C296.61785317 72.47283819 296.61785317 72.47283819 296 76 C294.20703125 78.28125 294.20703125 78.28125 291.8125 80.5 C290.98234375 81.28375 290.1521875 82.0675 289.296875 82.875 C288.53890625 83.57625 287.7809375 84.2775 287 85 C286.195625 85.825 285.39125 86.65 284.5625 87.5 C279.11398701 92.81562243 273.36902879 97.82002638 267.625 102.8125 C265.61654255 104.55933473 263.69613713 106.30386287 261.8125 108.1875 C260 110 260 110 257.5625 111.9375 C254.82995663 114.13686418 252.45218193 116.49079058 250 119 C245.82500184 123.26002867 241.7005643 127.31577393 237 131 C235.31237149 132.6454378 233.6459651 134.31288577 232 136 C227.73581903 140.33080879 223.30036572 144.4400369 218.81640625 148.5390625 C215.46195885 151.61726129 212.21453155 154.77451604 209 158 C203.5308642 163 203.5308642 163 201 163 C200.74476563 163.59296875 200.48953125 164.1859375 200.2265625 164.796875 C198.88183502 167.21224538 197.50785633 168.51211706 195.375 170.25 C194.74335938 170.77078125 194.11171875 171.2915625 193.4609375 171.828125 C192.97882813 172.21484375 192.49671875 172.6015625 192 173 C188.60217083 171.61177487 187.26749783 170.30670654 185.5625 167.078125 C185.14226562 166.29953125 184.72203125 165.5209375 184.2890625 164.71875 C183.86367188 163.9040625 183.43828125 163.089375 183 162.25 C180.20022535 156.98981732 177.35349892 151.93573432 174 147 C172.99688376 145.24262245 172.01680039 143.47185669 171.0625 141.6875 C170.54300781 140.72457031 170.02351562 139.76164063 169.48828125 138.76953125 C168.99714844 137.85558594 168.50601563 136.94164062 168 136 C165.5755448 131.5234462 163.06991993 127.1044589 160.46484375 122.73046875 C160.00948242 121.96428223 159.55412109 121.1980957 159.08496094 120.40869141 C158.16120975 118.85780935 157.23353769 117.30925528 156.30175781 115.76318359 C155.66318848 114.69124756 155.66318848 114.69124756 155.01171875 113.59765625 C154.62459717 112.95320557 154.23747559 112.30875488 153.83862305 111.64477539 C153 110 153 110 153 108 C154.62439686 106.25437949 156.2597752 104.62391158 158 103 C158.51175781 102.52175781 159.02351562 102.04351562 159.55078125 101.55078125 C161.75203489 99.51020306 163.9682048 97.48614225 166.18359375 95.4609375 C169.53800903 92.38276819 172.78556548 89.22553793 176 86 C180.64864865 82 180.64864865 82 183 82 C183.28875 81.38125 183.5775 80.7625 183.875 80.125 C185 78 185 78 187 76 C131.89 75.67 76.78 75.34 20 75 C17.525 65.595 17.525 65.595 15 56 C13.75515446 51.290171 12.50696311 46.58156589 11.25 41.875 C10.94707031 40.72902344 10.64414063 39.58304688 10.33203125 38.40234375 C9.89697266 36.77619141 9.89697266 36.77619141 9.453125 35.1171875 C9.19692383 34.15409668 8.94072266 33.19100586 8.67675781 32.19873047 C8.20178172 30.04584673 8.20178172 30.04584673 7 29 C6.72107792 27.29614987 6.47818451 25.58638383 6.25 23.875 C5.32484227 17.95399055 3.66810388 12.52914879 1.67675781 6.90185547 C0 2.16106712 0 2.16106712 0 0 Z " fill="#02CFC8" transform="translate(86,63)"/>
</svg>
