<svg viewBox="0 0 18 13" xmlns="http://www.w3.org/2000/svg">
    <path fill="#00A09D" d="M0 2.16667C0 1.59203 0.237053 1.04093 0.65901 0.634602C1.08097 0.228273 1.65326 0 2.25 0H15.75C16.3467 0 16.919 0.228273 17.341 0.634602C17.7629 1.04093 18 1.59203 18 2.16667V10.8333C18 11.408 17.7629 11.9591 17.341 12.3654C16.919 12.7717 16.3467 13 15.75 13H2.25C1.65326 13 1.08097 12.7717 0.65901 12.3654C0.237053 11.9591 0 11.408 0 10.8333V2.16667ZM2.25 1.08333C1.95163 1.08333 1.66548 1.19747 1.4545 1.40063C1.24353 1.6038 1.125 1.87935 1.125 2.16667V3.25H16.875V2.16667C16.875 1.87935 16.7565 1.6038 16.5455 1.40063C16.3345 1.19747 16.0484 1.08333 15.75 1.08333H2.25ZM16.875 5.41667H1.125V10.8333C1.125 11.1207 1.24353 11.3962 1.4545 11.5994C1.66548 11.8025 1.95163 11.9167 2.25 11.9167H15.75C16.0484 11.9167 16.3345 11.8025 16.5455 11.5994C16.7565 11.3962 16.875 11.1207 16.875 10.8333V5.41667Z" />
    <path fill="#00A09D" d="M2.25 8.66683C2.25 8.37951 2.36853 8.10396 2.5795 7.9008C2.79048 7.69763 3.07663 7.5835 3.375 7.5835H4.5C4.79837 7.5835 5.08452 7.69763 5.2955 7.9008C5.50647 8.10396 5.625 8.37951 5.625 8.66683V9.75016C5.625 10.0375 5.50647 10.313 5.2955 10.5162C5.08452 10.7194 4.79837 10.8335 4.5 10.8335H3.375C3.07663 10.8335 2.79048 10.7194 2.5795 10.5162C2.36853 10.313 2.25 10.0375 2.25 9.75016V8.66683Z" />
</svg>
