<svg width="24" height="15" viewBox="0 0 24 15" fill="none" xmlns="http://www.w3.org/2000/svg">
    <g clip-path="url(#clip0_58_94)">
        <path d="M22.3694 14.8966H1.63066C0.732714 14.8966 0 14.1465 0 13.2275V1.66906C0 0.749975 0.732714 0 1.63066 0H22.3694C23.2672 0 24 0.749975 24 1.66906V13.2275C23.9929 14.1465 23.2672 14.8966 22.3694 14.8966Z" fill="#00A09D"/>
        <mask id="mask0_58_94" style="mask-type:luminance" maskUnits="userSpaceOnUse" x="0" y="0" width="24" height="15">
            <path d="M22.3694 14.8966H1.63066C0.732714 14.8966 0 14.1465 0 13.2275V1.66906C0 0.749975 0.732714 0 1.63066 0H22.3694C23.2672 0 24 0.749975 24 1.66906V13.2275C23.9929 14.1465 23.2672 14.8966 22.3694 14.8966Z" fill="white"/>
        </mask>
        <g mask="url(#mask0_58_94)">
            <path d="M18.9571 10.1107C18.167 10.1327 15.344 10.5077 14.5968 10.6033C14.4244 10.6254 14.0293 10.6768 13.5193 10.7504C13.5552 10.4783 13.5839 10.221 13.6127 10.0224C13.7349 9.18423 13.7779 8.97836 13.7779 8.97836C13.7779 8.97836 14.0724 9.43423 14.7692 9.55187C15.5738 9.68422 16.1484 9.07394 16.5722 8.19898C17.0105 7.30194 17.2906 6.02993 17.3409 5.28731C17.384 4.5741 17.3122 3.69912 16.9888 3.24326C16.6656 2.78003 15.9904 2.84621 15.624 3.05209C15.2648 3.25796 14.8697 3.82413 14.8051 3.99323L14.877 3.48589C14.877 3.48589 14.9775 3.31679 14.5681 3.21385C14.1586 3.11091 13.9432 3.08149 13.8498 3.42708C13.8066 3.60355 13.39 5.8167 12.9877 7.9784C12.8943 8.11074 12.7219 8.29456 12.413 8.39015C11.9102 8.54455 12.4274 6.46374 12.4274 6.46374C12.4274 6.46374 12.8584 4.42705 12.9231 4.12559C12.9877 3.82411 12.9662 3.53002 12.6357 3.42708C12.3053 3.32414 11.982 3.30944 11.8886 3.6256C11.7881 3.94177 11.7881 3.94177 11.7881 3.94177C11.7881 3.94177 11.4361 3.46384 10.7249 3.57413C10.0066 3.68442 9.14455 4.70644 8.62734 6.30934C8.11013 7.91222 8.2969 8.86806 8.39029 9.25776C8.47648 9.64746 8.6848 10.1991 9.41752 10.2871C10.1502 10.3974 10.689 9.84598 10.9692 9.13277C10.9692 9.13277 10.9835 9.72833 11.4792 9.90479C11.8671 10.0371 12.3771 9.75775 12.7004 9.52245C12.607 10.0298 12.5208 10.493 12.4489 10.8974C10.8183 11.1401 8.82129 11.4415 8.34 11.5518C7.98082 11.6327 7.34149 11.7356 6.63034 11.8827V11.8753C6.63034 11.8753 8.53396 4.91967 8.58424 4.72115C8.63453 4.52262 8.79974 3.96382 8.58424 3.88294C8.36873 3.80941 8.04547 3.83883 7.73658 4.03C7.4277 4.22116 7.21938 4.49321 7.13317 4.77262C7.04698 5.05203 6.76682 5.9564 6.63752 6.32404C6.5154 6.69167 6.09157 7.91222 5.78987 8.39015C5.45942 8.91219 5.02841 9.28717 4.71234 9.05924C4.4681 8.88277 4.59023 8.30927 4.66206 7.9784C4.7339 7.64753 4.95658 6.96372 5.05716 6.63285C5.15772 6.30197 5.30857 5.86817 5.33013 5.52259C5.35167 5.18437 5.08589 4.87556 4.84165 4.82408C4.59741 4.77262 4.3388 4.7285 4.23823 4.92702C4.13767 5.12555 4.20232 5.41966 4.17359 5.70641C4.14485 5.96375 4.02273 6.2064 3.93652 6.44168C3.84314 6.70637 3.74257 6.97843 3.65638 7.24313C3.52707 7.64753 3.41213 8.05192 3.32593 8.46367C3.23973 8.86807 3.15353 9.28717 3.19664 9.69892C3.22537 10.0151 3.34748 10.3386 3.58454 10.5518C3.78568 10.721 4.05146 10.8018 4.31007 10.7798C4.74826 10.7504 5.15772 10.4489 5.45942 10.1401C5.60309 10.0004 5.82579 9.78715 5.89044 9.58128C5.61747 10.4415 5.33013 11.3018 5.06433 12.1621C5.04997 12.1988 5.04278 12.2356 5.02124 12.265C4.99249 12.3018 4.9494 12.3165 4.91349 12.3312C4.88475 12.3459 4.85601 12.3532 4.82009 12.3679C4.60458 12.4415 4.40345 12.5297 4.21669 12.6179C3.74976 12.8459 3.36185 13.0959 3.05296 13.3238C2.61477 13.6253 2.2125 13.9708 1.85332 14.3606C1.39358 14.8679 1.01285 15.456 0.754248 16.0957C0.517193 16.6913 0.316055 17.3898 0.481275 18.0295C0.639312 18.6398 1.14216 19.103 1.75994 19.1765C2.19813 19.228 2.63632 19.0957 3.01705 18.8678C3.39777 18.6398 3.71384 18.3236 4.00118 17.9854C4.84884 16.9855 5.38759 15.7943 5.81141 14.559C5.91917 14.2355 6.02692 13.912 6.12749 13.5885C7.39897 13.2282 10.4735 12.64 11.2637 12.5003C11.4433 12.4709 11.7737 12.4194 12.1903 12.3606C12.1688 12.5224 12.1329 12.8312 12.2119 13.0223C12.3197 13.287 12.6788 13.4488 13.0308 13.0223C13.1529 12.8753 13.2463 12.5738 13.3253 12.1988C14.6973 12.0077 16.3137 11.7871 16.8668 11.7136C17.7935 11.5886 19.7546 11.4562 19.9916 11.2136C20.2287 10.9709 20.1784 10.6401 20.0563 10.4342C19.9055 10.2136 19.7473 10.0886 18.9571 10.1107ZM14.4675 6.50785C14.6758 5.71377 14.92 4.77997 15.4516 4.38293C16.1054 3.89029 16.213 4.83879 16.1772 5.32407C16.1413 5.85346 16.012 6.36815 15.8467 6.86814C15.7031 7.29459 15.545 7.73575 15.2433 8.05927C14.9775 8.34602 14.4173 8.52984 14.1083 8.17692C14.1012 8.17692 14.252 7.34607 14.4675 6.50785ZM11.5726 5.24319C11.4864 5.69906 11.278 6.44903 11.0194 7.25048C10.7465 8.10339 10.4376 8.8019 10.0137 8.72102C9.53964 8.62543 9.47499 7.88281 9.50372 7.47106C9.53246 7.05196 9.6474 6.56668 9.84853 6.08876C10.2293 5.19172 10.7034 4.91967 11.0554 4.77997C11.3427 4.66233 11.6659 4.76527 11.5726 5.24319ZM4.43218 14.3311C4.38191 14.4708 4.33162 14.6031 4.27415 14.7428C4.15921 15.0297 4.02273 15.309 3.88624 15.5884C3.60609 16.1619 3.28283 16.7207 2.87338 17.1986C2.67224 17.4339 2.06164 18.0957 1.73838 17.6987C1.48696 17.3825 1.81022 16.4707 2.50701 15.5737C3.3834 14.4488 4.53994 14.0149 4.53994 14.0149C4.5112 14.0297 4.44656 14.2944 4.43218 14.3311Z" fill="#000000"/>
            <path d="M21.0906 6.65464C20.9111 6.59582 20.7243 6.88992 20.6165 7.02228C20.5016 7.16198 20.358 7.27226 20.2214 7.39726C19.9197 7.66196 19.2373 8.12517 18.8495 7.75019C18.6842 7.58843 18.6627 7.21345 18.6986 6.9708C18.7273 6.75758 18.8566 6.40465 18.871 6.40465C19.2015 6.3973 19.5463 6.25759 19.7258 6.17672C20.2646 5.94144 20.7387 5.5738 21.0691 5.07381C21.5217 4.3753 22.0317 3.10329 21.1984 2.50037C21.0764 2.41213 20.9255 2.35332 20.7747 2.32391C20.2502 2.23566 19.7977 2.31656 19.3882 2.66948C18.8423 3.1474 18.6555 3.3974 18.1957 4.26501C17.6785 5.25028 17.384 6.46347 17.4487 7.58108C17.4631 7.85313 17.499 8.13254 17.5924 8.38252C17.6857 8.63986 17.8365 8.88251 18.0521 9.04426C18.3898 9.30161 18.8423 9.34572 19.2446 9.24278C19.7473 9.11779 20.3077 8.75015 20.473 8.61781C20.6309 8.49281 21.3205 7.85313 21.4212 7.64726C21.5217 7.44138 21.3852 7.11051 21.3852 7.11051C21.3278 6.99286 21.2344 6.70611 21.0906 6.65464ZM19.8911 3.67679C19.9773 3.58857 20.0778 3.50033 20.1999 3.47093C20.3723 3.4268 20.5232 3.51504 20.552 3.69151C20.6023 3.96355 20.4586 4.28707 20.3077 4.50029C20.1568 4.70617 19.9629 4.86794 19.7617 5.00028C19.6683 5.05911 19.5678 5.11057 19.4673 5.15469C19.1798 5.27233 19.1008 5.24291 19.0937 5.27233C19.1439 4.93411 19.4744 4.11061 19.8911 3.67679Z" fill="#000000"/>
        </g>
        <mask id="mask1_58_94" style="mask-type:luminance" maskUnits="userSpaceOnUse" x="0" y="0" width="24" height="15">
            <path d="M22.3694 14.8966H1.63066C0.732714 14.8966 0 14.1465 0 13.2275V1.66906C0 0.749975 0.732714 0 1.63066 0H22.3694C23.2672 0 24 0.749975 24 1.66906V13.2275C23.9929 14.1465 23.2672 14.8966 22.3694 14.8966Z" fill="white"/>
        </mask>
        <g mask="url(#mask1_58_94)">
            <path d="M16.1054 -4.61704C15.2577 -7.89634 11.9246 -9.83009 8.65607 -8.94777C5.39477 -8.05809 3.44087 -4.68321 4.2957 -1.40391C4.57585 -0.323067 5.12898 0.618077 5.8617 1.35335C6.23524 1.73569 5.51689 3.94149 5.97663 4.20619C6.27116 4.3753 7.03979 3.52239 7.66475 3.14006C8.06703 2.89741 8.61297 2.93417 8.76383 2.97094C9.71204 3.19887 10.7321 3.19152 11.745 2.91947C15.0063 2.03715 16.9602 -1.33774 16.1054 -4.61704Z" fill="#10CBB4"/>
        </g>
    </g>
    <defs>
        <clipPath id="clip0_58_94">
            <rect width="24" height="14.8966" fill="white"/>
        </clipPath>
    </defs>
</svg>
