<svg width="486" height="257" viewBox="0 0 486 257" fill="none" xmlns="http://www.w3.org/2000/svg">
<path d="M105.342 22.0579C46.8378 24.0731 1.04905 73.1431 3.06403 131.652C3.39986 141.531 5.09059 151.039 7.92779 160.026C7.99727 160.235 8.06675 160.443 8.12465 160.652C9.93455 166.429 10.9551 172.424 11.1587 178.475C11.4482 186.895 10.1744 194.99 7.60354 202.506C7.54564 202.669 7.48773 202.819 7.44141 202.981C6.66553 205.298 6.28337 207.788 6.37602 210.37C6.57288 215.918 8.88896 220.886 12.5252 224.523C16.1614 228.159 21.1294 230.475 26.688 230.672C29.2704 230.765 31.7602 230.383 34.0763 229.607C34.2384 229.549 34.3889 229.502 34.5511 229.445C42.0667 226.862 50.173 225.588 58.5803 225.866C64.7874 226.074 70.7629 227.117 76.4141 228.889C76.6226 228.958 76.831 229.016 77.0395 229.086C86.0258 231.923 95.5449 233.602 105.411 233.938C163.915 235.919 212.958 190.103 214.939 131.594C215.969 101.031 203.972 73.062 183.938 53.0264C164.703 33.8129 138.172 22 109.071 22C107.832 22 106.593 22.0232 105.353 22.0579H105.342Z" fill="url(#paint0_radial_12_2)"/>
<path d="M129 94.9939C129 98.8619 126.086 102 122.506 102C118.925 102 116 98.8619 116 94.9939C116 91.126 118.914 88 122.506 88C126.097 88 129 91.1381 129 94.9939Z" fill="#191919"/>
<path d="M99.8928 88H98.3568C95.0523 88 92.3877 90.6643 92.3877 93.9426V148.191C92.3877 151.481 95.0639 154.145 98.3568 154.145H99.8928C103.197 154.145 105.874 151.481 105.874 148.191V93.9426C105.874 90.6527 103.197 88 99.8928 88ZM62.0881 103.835C55.3394 103.835 53.8034 106.071 48.7302 106.071C45.798 106.071 44.1806 105.121 40.3408 105.121C38.0718 105.121 35 106.465 35 110.983V136.943L35.0582 168.266C35.0582 169.02 35.2075 169.766 35.4977 170.463C35.7879 171.159 36.2132 171.792 36.7493 172.325C37.2853 172.857 37.9217 173.279 38.6218 173.567C39.322 173.854 40.0722 174.002 40.8295 174H42.6447C44.1754 174 45.6433 173.395 46.7257 172.317C47.808 171.24 48.4161 169.778 48.4161 168.254V157.481C48.4161 153.774 50.9061 152.384 52.9889 152.384C54.4667 152.384 57.5967 153.635 61.0176 153.635C79.0531 153.635 84.2892 141.379 84.2892 129.575C84.2892 113.3 76.8306 103.824 62.0997 103.824M59.2839 145.92C51.6043 145.92 47.3921 138.31 47.3921 128.915C47.3921 119.52 51.9533 111.909 59.2839 111.909C66.6144 111.909 71.1757 119.52 71.1757 128.915C71.1757 138.31 67.0915 145.92 59.2839 145.92ZM122.873 105.422H121.338C118.033 105.422 115.357 108.087 115.357 111.365V148.202C115.357 151.492 118.033 154.157 121.338 154.157H122.873C126.178 154.157 128.843 151.492 128.843 148.202V111.365C128.843 108.075 126.166 105.422 122.873 105.422ZM180.913 116.717C180.657 110.716 177.375 104.148 166.391 104.148C161.062 104.148 159.154 106.384 153.464 106.384C150.59 106.384 149.717 105.434 145.191 105.434C141.63 105.434 138.372 107.612 138.372 111.458V148.561C138.372 151.643 140.886 154.145 143.981 154.145H146.25C149.356 154.145 151.87 151.643 151.858 148.55V121.038C151.858 115.477 155.186 112.164 159.782 112.164C164.25 112.164 167.66 115.141 167.66 121.061V148.561C167.66 151.643 170.173 154.145 173.268 154.145H175.316C178.411 154.145 180.983 151.643 180.983 148.561V127.189C180.983 123.69 181.052 120.192 180.913 116.705" fill="#191919"/>
<path d="M318.662 34.0001C304.677 33.9656 293.336 45.2291 293.313 59.1448L293 221.69L457.303 222C471.288 222.034 482.664 210.771 482.675 196.844L483 34.2986L318.639 34.0116H318.662V34.0001ZM438.448 169.724L337.343 187.624L337.529 86.6318L438.634 68.7319L438.448 169.736V169.724Z" fill="#00A09D"/>
<path d="M250 34V222" stroke="#00A09D" stroke-width="2.52" stroke-miterlimit="10"/>
<defs>
<radialGradient id="paint0_radial_12_2" cx="0" cy="0" r="1" gradientUnits="userSpaceOnUse" gradientTransform="translate(8.77316 239.046) scale(181.812 181.827)">
<stop stop-color="#00A09D"/>
<stop offset="1" stop-color="#00A09D"/>
</radialGradient>
</defs>
</svg>
