<svg width="14" height="14" viewBox="0 0 14 14" xmlns="http://www.w3.org/2000/svg">
    <path stroke="#00A09D" fill="none" d="M4.48665 1H1.49707V4.11849H4.48665V1Z" stroke-width="1.24103"/>
    <path stroke="#00A09D" fill="none" d="M4.48665 9.32764H1.49707V12.4461H4.48665V9.32764Z" stroke-width="1.24103"/>
    <path stroke="#00A09D" fill="none" d="M12.4785 1H9.48047V4.11849H12.4785V1Z" stroke-width="1.24103"/>
    <path stroke="#00A09D" d="M5.98438 1H7.99706" stroke-width="1.24103"/>
    <path stroke="#00A09D" d="M5.98438 2.55469H7.99706" stroke-width="1.24103"/>
    <path stroke="#00A09D" d="M6.9873 6.71826H8.98313" stroke-width="1.24103"/>
    <path stroke="#00A09D" d="M7.52734 9.84521H10.0537" stroke-width="1.24103"/>
    <path stroke="#00A09D" d="M5 5.66406H7.00426" stroke-width="1.24103"/>
    <path stroke="#00A09D" d="M1 6.71826H2.99583" stroke-width="1.24103"/>
    <path stroke="#00A09D" d="M3.99023 6.71826H5.98606" stroke-width="1.24103"/>
    <path stroke="#00A09D" d="M5.98438 7.76416H6.98645" stroke-width="1.24103"/>
    <path stroke="#00A09D" d="M10.9873 10.9355H11.9895" stroke-width="1.24103"/>
    <path stroke="#00A09D" d="M11.9727 8.2998H12.9747" stroke-width="1.24103"/>
    <path stroke="#00A09D" d="M7.99805 5.66406H8.99169" stroke-width="1.24103"/>
    <path stroke="#00A09D" d="M5.98438 9.84521H7.52542" stroke-width="1.24103"/>
    <path stroke="#00A09D" d="M10.4736 6.20068H13" stroke-width="1.24103"/>
    <path stroke="#00A09D" d="M8.9834 8.80176H10.9877" stroke-width="1.24103"/>
    <path stroke="#00A09D" d="M5.98438 12.4458H9.97603" stroke-width="1.24103"/>
    <path stroke="#00A09D" d="M6.49805 1V4.64559" stroke-width="1.24103"/>
    <path stroke="#00A09D" d="M7.52734 8.2998V11.9454" stroke-width="1.24103"/>
    <path stroke="#00A09D" d="M12.4863 10.3647V13.0001" stroke-width="1.24103"/>
    <path stroke="#00A09D" d="M10.4736 5.66406V8.78255" stroke-width="1.24103"/>
</svg>
